/vscmnt/brussel_pixiu_data/_data_brussel/112/vsc11236/PredSimResults/SUBJ06opt3D/trackIG/worker_15.mot
version=1
nRows=4
nColumns=50
inDegrees=yes
endheader
                time	         pelvis_tilt	         pelvis_list	     pelvis_rotation	           pelvis_tx	           pelvis_ty	           pelvis_tz	       hip_flexion_r	     hip_adduction_r	      hip_rotation_r	        knee_angle_r	       ankle_angle_r	         mtp_angle_r	       hip_flexion_l	     hip_adduction_l	      hip_rotation_l	        knee_angle_l	       ankle_angle_l	         mtp_angle_l	    lumbar_extension	      lumbar_bending	     lumbar_rotation	 ercspn_r/activation	 intobl_r/activation	 extobl_r/activation	    abd_r/activation	    add_r/activation	hamstrings_r/activation	bifemsh_r/activation	glut_max_r/activation	iliopsoas_r/activation	rect_fem_r/activation	  vasti_r/activation	gastroc_r/activation	 soleus_r/activation	tib_ant_r/activation	 ercspn_l/activation	 intobl_l/activation	 extobl_l/activation	    abd_l/activation	    add_l/activation	hamstrings_l/activation	bifemsh_l/activation	glut_max_l/activation	iliopsoas_l/activation	rect_fem_l/activation	  vasti_l/activation	gastroc_l/activation	 soleus_l/activation	tib_ant_l/activation	
          1.13312098	        -13.97806163	         -1.35084660	          9.98523175	          2.26624196	          0.88884525	         -0.01301476	         47.07029222	         -4.75731735	         -5.80794541	        -11.86203567	         -1.60523566	          0.24332367	         -0.99714527	         -1.62241097	          3.79570543	        -25.70339734	          4.45542243	         49.03800639	         -5.69705122	         -0.85379572	         -1.69107260	          0.22360608	          0.07868096	          0.01000001	          0.01000000	          0.15436211	          0.01000001	          0.31142282	          0.01604011	          0.15077268	          0.03515095	          0.00999999	          0.07840208	          0.01680289	          0.50915969	          0.26569476	          0.01893225	          0.01000000	          0.05573120	          0.03990487	          0.14738245	          0.81052179	          0.04805999	          0.07635866	          0.01652495	          0.07971493	          0.21019419	          0.34058358	          0.01915261	
          1.14445219	        -13.78966515	         -1.45249051	         10.33121172	          2.29581501	          0.88852997	         -0.01213271	         46.88593924	         -4.82700481	         -7.06736232	        -14.80903008	         -2.18945413	          0.25958023	         -2.65770239	         -2.20611540	          3.17763490	        -25.53928929	          1.13189484	         50.16756872	         -5.15573140	         -0.62353564	         -1.94734442	          0.18808548	          0.06618222	          0.01000006	          0.01000000	          0.16126692	          0.05061530	          0.26195223	          0.11020789	          0.12682192	          0.02956710	          0.00999999	          0.06594764	          0.01413370	          0.57716948	          0.25176863	          0.01680302	          0.01000006	          0.04687811	          0.03356586	          0.13394428	          0.68784529	          0.04042550	          0.23803401	          0.01389991	          0.06705193	          0.19628323	          0.28648070	          0.01611015	
          1.15578340	        -13.58336861	         -1.65405394	         10.66189899	          2.32546115	          0.88789500	         -0.01116564	         46.67058862	         -4.85453919	         -7.94288075	        -18.21242618	         -2.26268836	          0.16269149	         -3.94164304	         -2.90814061	          2.45163269	        -26.07581656	         -1.88694464	         50.16509815	         -4.59633754	         -0.28999404	         -2.19258574	          0.15820745	          0.05566894	          0.01000002	          0.13300837	          0.18910296	          0.08389413	          0.22034022	          0.12516528	          0.10667582	          0.02487026	          0.00999999	          0.05547163	          0.01188851	          0.66692095	          0.21613574	          0.01413381	          0.01000001	          0.03943136	          0.02823382	          0.11266679	          0.57857870	          0.03400377	          0.56593372	          0.01169187	          0.05640050	          0.16510930	          0.24097225	          0.01355100	
          1.16711461	        -13.36576084	         -1.92363911	         10.97987172	          2.35472123	          0.88719371	         -0.00999824	         46.60279952	         -4.73901265	         -8.38488049	        -21.89946609	         -1.92888885	          0.10385046	         -4.66974086	         -3.70082597	          1.65679857	        -27.51309766	         -4.80700398	         49.28495128	         -4.08355643	          0.10322376	         -2.43491320	          0.16437307	          0.04682574	          0.01000002	          0.23061552	          0.28831305	          0.08011828	          0.18533841	          0.49859167	          0.08973000	          0.02091954	          0.00999999	          0.04665977	          0.00999999	          0.56097827	          0.31025452	          0.01188860	          0.01000001	          0.03316755	          0.02374878	          0.09476929	          0.48666948	          0.02860215	          0.75272711	          0.01000002	          0.04744109	          0.13888113	          0.20269297	          0.01139837	
